inDegrees=yes
name=ik_data_2024_11_06_17_43
DataType=double
version=3
OpenSimVersion=4.5.1
endheader
time	pelvis_tilt	pelvis_list	pelvis_rotation	pelvis_tx	pelvis_ty	pelvis_tz	hip_flexion_r	hip_adduction_r	hip_rotation_r	knee_angle_r	knee_angle_r_beta	ankle_angle_r	subtalar_angle_r	mtp_angle_r	hip_flexion_l	hip_adduction_l	hip_rotation_l	knee_angle_l	knee_angle_l_beta	ankle_angle_l	subtalar_angle_l	mtp_angle_l	lumbar_extension	lumbar_bending	lumbar_rotation	arm_flex_r	arm_add_r	arm_rot_r	elbow_flex_r	pro_sup_r	wrist_flex_r	wrist_dev_r	arm_flex_l	arm_add_l	arm_rot_l	elbow_flex_l	pro_sup_l	wrist_flex_l	wrist_dev_l
14.94	15.21122406886606	-10.48938530996601	147.297215649595	0	0.9399999999999999	0	-29.9918950863731	1.683822036815258	-32.13611698541612	0.009163094051957574	0.000159926160876568	-3.605538044161387	0	0	18.65958411899079	0.3361420748865313	0.290759734809893	0.4959409886490403	0.008655803147521578	-3.605538044161387	0	0	0	0	0	0	-2.70123361084065	0	32.79600919854737	29.6925164473551	0	0	0	-2.70123361084065	0	32.79600919854737	29.6925164473551	0	0
15.075	15.32934476458534	-10.63513986075875	147.4908979371641	0	0.9399999999999999	0	-29.99197120897146	2.242941947107324	-32.76529677810232	0.009071748936348146	0.0001583318878535686	-3.610170703167428	0	0	18.83800088996906	0.4587423539084491	0.4248914951175853	0.5046810611247315	0.008808346189085322	-3.610170703167428	0	0	0	0	0	0	-2.706015935765519	0	32.84145506290072	29.72749336820575	0	0	0	-2.706015935765519	0	32.84145506290072	29.72749336820575	0	0
15.21	15.60378974918963	-10.88265940551173	147.6785033830135	0	0.9399999999999999	0	-29.99211787670946	2.70899293805089	-33.31605962973201	0.009178557616573574	0.0001601960509932121	-3.614453234280959	0	0	19.19357828967298	0.5586483279528058	0.5372481041982957	0.5033766715048349	0.008785580295489289	-3.614453234280959	0	0	0	0	0	0	-2.71041737350127	0	32.8833752586369	29.75980008410619	0	0	0	-2.71041737350127	0	32.8833752586369	29.75980008410619	0	0
15.33	15.64357765072218	-10.76546469079404	147.4907508090814	0	0.9399999999999999	0	-29.99210720324559	1.924103007359669	-32.71729277984662	0.009254687042119212	0.0001615247601266354	-3.619793334159469	0	0	19.16681422538388	0.3801825784563274	0.4058184546963919	0.5033243026984625	0.00878466628739275	-3.619793334159469	0	0	0	0	0	0	-2.715970788490597	0	32.93593044673429	29.80016601770165	0	0	0	-2.715970788490597	0	32.93593044673429	29.80016601770165	0	0
15.465	15.63320849703711	-11.03531765472879	148.0559039771881	0	0.9399999999999999	0	-29.99216239328261	3.770375998280062	-34.37168996924546	0.008936417688604139	0.0001559699119996036	-3.624944252899458	0	0	19.30525049217014	0.7883914995040664	0.8597494774264414	0.5079215196145569	0.008864902859006978	-3.624944252899458	0	0	0	0	0	0	-2.721230991622269	0	32.98619710707484	29.83897843551716	0	0	0	-2.721230991622269	0	32.98619710707484	29.83897843551716	0	0
15.6	15.1470066986679	-11.03402886595942	148.6718416632654	0	0.9399999999999999	0	-29.99199686749995	6.216641262597426	-36.10399766385608	0.008410080132818779	0.0001467835886742497	-3.63110756798046	0	0	18.88244632411542	1.256264420298274	1.448267529142	0.5086673919826097	0.008877920787629145	-3.63110756798046	0	0	0	0	0	0	-2.727557582427988	0	33.04648376178836	29.88545998660848	0	0	0	-2.727557582427988	0	33.04648376178836	29.88545998660848	0	0
15.72	14.56025135407962	-10.82290349486695	148.8419078733251	0	0.9399999999999999	0	-29.99173563589495	7.448942977603967	-36.7187854148069	0.007994023858975753	0.0001395220368221097	-3.636239155028016	0	0	18.26619580378682	1.461046020882431	1.677338100303559	0.4939637341212161	0.008621293545861081	-3.636239155028016	0	0	0	0	0	0	-2.73294040479248	0	33.09718129550586	29.92430669418264	0	0	0	-2.73294040479248	0	33.09718129550586	29.92430669418264	0	0
15.855	13.75285903052998	-10.50836854608749	149.1558481492282	0	0.9399999999999999	0	-29.99132281044731	9.484667295538616	-38.16743220163582	0.00736598607527402	0.0001285607096695865	-3.641666069457407	0	0	17.41479496260051	1.73155959604511	2.075826560886565	0.4974602188177094	0.008682318716060481	-3.641666069457407	0	0	0	0	0	0	-2.738574957688873	0	33.15053798711742	29.96531401699504	0	0	0	-2.738574957688873	0	33.15053798711742	29.96531401699504	0	0
15.991	12.82792418642465	-9.990631189103741	149.120771470342	0	0.9399999999999999	0	-29.9907606258596	13.27331671449297	-39.82984902223301	0.006674788895308914	0.0001164970430986956	-3.65036126519245	0	0	16.37514920702844	1.789310930151138	2.190600774108928	0.508469775609782	0.008874471731267455	-3.65036126519245	0	0	0	0	0	0	-2.744923035550257	0	33.23096131371008	30.03030485815001	0	0	0	-2.744923035550257	0	33.23096131371008	30.03030485815001	0	0
16.11	11.99083954499754	-9.313055708417604	148.6685667365803	0	0.9399999999999999	0	-29.99011699973877	15.23942991697529	-39.90120886593073	0.006343491821331183	0.000110714818355561	-3.655296063482787	0	0	15.32068283521552	1.558118351489683	1.932938719280176	0.5057532839936679	0.008827060008463441	-3.655296063482787	0	0	0	0	0	0	-2.75008326485093	0	33.27963034690698	30.06763589693859	0	0	0	-2.75008326485093	0	33.27963034690698	30.06763589693859	0	0
16.259	11.19249108367004	-8.476588604972154	147.8888777082941	0	0.9399999999999999	0	-29.98932750651203	18.09218172533252	-39.94273429671574	0.005988729584585062	0.0001045230492626016	-3.660960696638495	0	0	14.22360445443881	1.102870700191791	1.376829077256938	0.5078105140150073	0.008862965445806687	-3.660960696638495	0	0	0	0	0	0	-2.756008176618578	0	33.33550426925947	30.11049062164037	0	0	0	-2.756008176618578	0	33.33550426925947	30.11049062164037	0	0
16.38	10.0039881248951	-7.226953476305478	146.7619828442332	0	0.9399999999999999	0	-29.98788576598482	22.17594638176325	-39.96219739947765	0.005551997047801459	9.690062854514047e-05	-3.669394891149778	0	0	12.57715650977602	0.4797657466428731	0.5319408180185325	0.521365177212886	0.009099538947608574	-3.669394891149778	0	0	0	0	0	0	-2.764876860440565	0	33.41891031222909	30.17436306461097	0	0	0	-2.764876860440565	0	33.41891031222909	30.17436306461097	0	0
16.5	8.769898950930809	-5.878693617252473	145.6305612176488	0	0.9399999999999999	0	-29.98585517513973	26.09630038342313	-39.96968255057781	0.005282482673779316	9.219671533700259e-05	-3.677520796833018	0	0	10.80998668715625	-0.1524584618333678	-0.3475249646898	0.5172913531011636	0.009028437303711884	-3.677520796833018	0	0	0	0	0	0	-2.773457128357238	0	33.49942067657272	30.23594703262685	0	0	0	-2.773457128357238	0	33.49942067657272	30.23594703262685	0	0
16.636	7.27550064903757	-4.529864430340099	144.1873998631187	0	0.9399999999999999	0	-29.98253067384427	29.57825257437757	-39.97340936154776	0.005082856217548979	8.871257640169486e-05	-3.684728544065983	0	0	8.81843333653795	-0.6200952115137546	-1.59262990778579	0.5350039333308804	0.009337580147744096	-3.684728544065983	0	0	0	0	0	0	-2.781107198837887	0	33.57100103269121	30.29062274480931	0	0	0	-2.781107198837887	0	33.57100103269121	30.29062274480931	0	0
16.77	1.50450367162874	-8.226494324099313	140.2828886695797	0	0.9399999999999999	0	-29.97575269430926	29.98020685762634	-39.96758864081539	0.007368366202828518	0.00012860225073203	-3.708507333994675	0	0	6.700503886363085	5.316971383132268	-5.688719508645173	0.5104802781434372	0.008909561620099425	-3.708507333994675	0	0	0	0	0	0	-2.806452669820158	0	33.80761804881272	30.47115249564098	0	0	0	-2.806452669820158	0	33.80761804881272	30.47115249564098	0	0
16.89	-1.149924764489343	-7.695388575018058	138.0240779309026	0	0.9399999999999999	0	-29.96140002410691	29.98432897389697	-39.96697333631564	0.007170413331009742	0.000125147321355014	-3.715830574943613	0	0	4.564470301335446	6.449804907447091	-7.710094777507024	0.5116086764329763	0.008929255885525754	-3.715830574943613	0	0	0	0	0	0	-2.814388165308968	0	33.88104470886662	30.52691743362982	0	0	0	-2.814388165308968	0	33.88104470886662	30.52691743362982	0	0
17.025	-3.479235881969553	-6.856575619057984	136.533793302023	0	0.9399999999999999	0	-29.90734961384481	29.98627156233091	-39.96356038184749	0.007186886786250759	0.0001254348373881497	-3.731960984210605	0	0	2.450078001782078	7.312689383265191	-8.973707485981292	0.5106119674249305	0.00891186003165107	-3.731960984210605	0	0	0	0	0	0	-2.840664504986567	0	34.07282762854061	30.65783174551695	0	0	0	-2.840664504986567	0	34.07282762854061	30.65783174551695	0	0
17.16	-5.390268832574781	-6.680946256481499	134.8664954675644	0	0.9399999999999999	0	-28.93353142145269	29.98805095906603	-39.96488290212751	0.007351537505972063	0.0001283085345630648	-3.748156852006053	0	0	1.178003122145426	8.469316310003398	-10.46616162244468	0.5124448688641285	0.008943850196629617	-3.748156852006053	0	0	0	0	0	0	-2.867987666677467	0	34.26825533188356	30.79000329735746	0	0	0	-2.867987666677467	0	34.26825533188356	30.79000329735746	0	0
17.28	-6.287020720617128	-7.387044015834602	133.3509626667981	0	0.9399999999999999	0	-26.47691759189913	29.98925850752005	-39.97204746791638	0.00760390063919429	0.0001327131021484417	-3.764359996208146	0	0	1.288720081275817	9.569729472845255	-11.90835402981424	0.5182159338639182	0.009044574282222552	-3.764359996208146	0	0	0	0	0	0	-2.895990918302841	0	34.46682485522862	30.92317856637403	0	0	0	-2.895990918302841	0	34.46682485522862	30.92317856637403	0	0
17.415	-7.61261902320114	-8.641826733255472	131.5800793097668	0	0.9399999999999999	0	-23.51093081190754	29.9905972940359	-39.97722926705124	0.008343615370764508	0.0001456235597398481	-3.786007072772015	0	0	1.630763010202703	11.34944233592265	-13.57260188361672	0.508267839149089	0.008870947275148538	-3.786007072772015	0	0	0	0	0	0	-2.933841527994206	0	34.7336137543428	31.10151263661026	0	0	0	-2.933841527994206	0	34.7336137543428	31.10151263661026	0	0
17.55	-8.41898639579609	-9.290913717364008	130.2459550465731	0	0.9399999999999999	0	-21.3274353526215	29.99119456567718	-39.98070837794688	0.008735678161420265	0.0001524663463113483	-3.800705636132948	0	0	1.843390262384576	12.33858568893043	-14.82763659141633	0.5044331220645222	0.008804018836140369	-3.800705636132948	0	0	0	0	0	0	-2.958946988644787	0	34.91415677576655	31.22266633613946	0	0	0	-2.958946988644787	0	34.91415677576655	31.22266633613946	0	0
17.67	-9.326649154137741	-10.13390860359837	129.473157990883	0	0.9399999999999999	0	-19.6177521159383	29.99172976846474	-39.98207164412848	0.009405934440109769	0.0001641645252066449	-3.812548874459085	0	0	2.068728490399566	13.54305605887797	-15.50092256351693	0.5034440326787047	0.008786755969761325	-3.812548874459085	0	0	0	0	0	0	-2.978257548862064	0	35.05796017282135	31.32006384789186	0	0	0	-2.978257548862064	0	35.05796017282135	31.32006384789186	0	0
17.805	-9.793915410346276	-10.54908653276559	128.7067699046288	0	0.9399999999999999	0	-18.23829208669574	29.99198635938301	-39.98354749438696	0.009690915408994681	0.0001691383814192101	-3.822497235500981	0	0	2.29126418433498	14.13299859790534	-16.24470541583128	0.5082034426093761	0.008869823343503655	-3.822497235500981	0	0	0	0	0	0	-2.9931203423818	0	35.17530746055137	31.40112815284323	0	0	0	-2.9931203423818	0	35.17530746055137	31.40112815284323	0	0
17.94	-10.24804271459379	-10.9345107968108	128.1891413969511	0	0.9399999999999999	0	-17.17201478984841	29.99219234342164	-39.98440159263917	0.01008934430430777	0.0001760922774775073	-3.828140088346004	0	0	2.427322172488556	14.70395552448386	-16.7134863661738	0.5029876822074513	0.008778791151494925	-3.828140088346004	0	0	0	0	0	0	-3.0001264316096	0	35.23742603661816	31.44600152019578	0	0	0	-3.0001264316096	0	35.23742603661816	31.44600152019578	0	0
